<svg class="visual-svg" xmlns="http://www.w3.org/2000/svg" viewBox="-125.5 -10.5 218 96.5" font-family="PT Sans, Segoe UI, Verdana, Arial, sans-serif" width="327" height="144.75"><rect x="-125.5" y="-10.5" width="218" height="96.5" fill="#fff"/><g transform="matrix(1 0 0 1 -70.57 0)"><rect x="-16.3" y="-8.15" width="32.61" height="57.07" fill="none" stroke="#888" stroke-width="0.7"/><line x1="-16.3" y1="40.76" x2="16.3" y2="40.76" fill="none" stroke="#000" stroke-width="1"/><rect x="-8.97" y="-4.08" width="17.93" height="4.08" fill="#fff" stroke="#000" stroke-width="1"/><polyline points="0,0 0,2.55 0,10.19 0,22.93 0,40.76" fill="none" stroke="#000" stroke-width="0.9"/><circle cx="0" cy="0" r="1.2" fill="#000"/><circle cx="0" cy="2.55" r="1.2" fill="#000"/><circle cx="0" cy="10.19" r="1.2" fill="#000"/><circle cx="0" cy="22.93" r="1.2" fill="#000"/><circle cx="0" cy="40.76" r="1.2" fill="#000"/></g><g transform="matrix(1 0 0 1 13.51 0)"><rect x="-16.3" y="-8.15" width="89.67" height="65.22" fill="none" stroke="#888" stroke-width="0.7"/><line x1="-16.3" y1="40.76" x2="73.37" y2="40.76" fill="none" stroke="#000" stroke-width="1"/><rect x="-8.97" y="-4.08" width="17.93" height="4.08" fill="none" stroke="#bbb" stroke-width="1"/><rect x="48.1" y="-4.08" width="17.93" height="4.08" fill="#fff" stroke="#000" stroke-width="1"/><line x1="0" y1="46.47" x2="50.07" y2="46.47" fill="none" stroke="#000" stroke-width="1.1"/><polygon points="57.07,46.47 50.07,43.47 50.07,49.47" fill="#000"/><polyline points="0,0 14.27,2.55 28.53,10.19 42.8,22.93 57.07,40.76" fill="none" stroke="#000" stroke-width="0.9"/><circle cx="0" cy="0" r="1.2" fill="#000"/><circle cx="14.27" cy="2.55" r="1.2" fill="#000"/><circle cx="28.53" cy="10.19" r="1.2" fill="#000"/><circle cx="42.8" cy="22.93" r="1.2" fill="#000"/><circle cx="57.07" cy="40.76" r="1.2" fill="#000"/></g><text x="-70.57" y="69.07" text-anchor="middle" fill="#000" font-size="8">система отсчёта: самолёт</text><text x="42.04" y="69.07" text-anchor="middle" fill="#000" font-size="8">система отсчёта: земля</text><text x="-16.47" y="82.03" text-anchor="middle" fill="#000" font-size="8">1 клетка = 100 м</text></svg>