<svg class="visual-svg" xmlns="http://www.w3.org/2000/svg" viewBox="-37 -21 253.5 143" font-family="PT Sans, Segoe UI, Verdana, Arial, sans-serif" width="380.25" height="214.5"><rect x="-37" y="-21" width="253.5" height="143" fill="#fff"/><line x1="0" y1="0" x2="0" y2="92" fill="none" stroke="#ccc" stroke-width="0.6"/><line x1="34.8" y1="0" x2="34.8" y2="92" fill="none" stroke="#ccc" stroke-width="0.6"/><line x1="69.6" y1="0" x2="69.6" y2="92" fill="none" stroke="#ccc" stroke-width="0.6"/><line x1="104.4" y1="0" x2="104.4" y2="92" fill="none" stroke="#ccc" stroke-width="0.6"/><line x1="139.2" y1="0" x2="139.2" y2="92" fill="none" stroke="#ccc" stroke-width="0.6"/><line x1="174" y1="0" x2="174" y2="92" fill="none" stroke="#ccc" stroke-width="0.6"/><line x1="0" y1="92" x2="174" y2="92" fill="none" stroke="#ccc" stroke-width="0.6"/><line x1="0" y1="69" x2="174" y2="69" fill="none" stroke="#ccc" stroke-width="0.6"/><line x1="0" y1="46" x2="174" y2="46" fill="none" stroke="#ccc" stroke-width="0.6"/><line x1="0" y1="23" x2="174" y2="23" fill="none" stroke="#ccc" stroke-width="0.6"/><line x1="0" y1="0" x2="174" y2="0" fill="none" stroke="#ccc" stroke-width="0.6"/><line x1="0" y1="92" x2="178.5" y2="92" fill="none" stroke="#000" stroke-width="1.5"/><polygon points="184,92 178.5,89 178.5,95" fill="#000"/><line x1="0" y1="92" x2="0" y2="-8.5" fill="none" stroke="#000" stroke-width="1.5"/><polygon points="0,-14 -3,-8.5 3,-8.5" fill="#000"/><text x="187" y="105" fill="#000" font-size="10">m, кг</text><text x="-7.5" y="-11" text-anchor="end" fill="#000" font-size="10">S, м<tspan baseline-shift="super" font-size="7.2">2</tspan></text><line x1="34.8" y1="92" x2="34.8" y2="96" fill="none" stroke="#000" stroke-width="0.9"/><line x1="69.6" y1="92" x2="69.6" y2="96" fill="none" stroke="#000" stroke-width="0.9"/><line x1="104.4" y1="92" x2="104.4" y2="96" fill="none" stroke="#000" stroke-width="0.9"/><line x1="139.2" y1="92" x2="139.2" y2="96" fill="none" stroke="#000" stroke-width="0.9"/><line x1="174" y1="92" x2="174" y2="96" fill="none" stroke="#000" stroke-width="0.9"/><line x1="0" y1="92" x2="-4" y2="92" fill="none" stroke="#000" stroke-width="0.9"/><line x1="0" y1="80.5" x2="-2.5" y2="80.5" fill="none" stroke="#000" stroke-width="0.5"/><line x1="0" y1="69" x2="-4" y2="69" fill="none" stroke="#000" stroke-width="0.9"/><line x1="0" y1="57.5" x2="-2.5" y2="57.5" fill="none" stroke="#000" stroke-width="0.5"/><line x1="0" y1="46" x2="-4" y2="46" fill="none" stroke="#000" stroke-width="0.9"/><line x1="0" y1="34.5" x2="-2.5" y2="34.5" fill="none" stroke="#000" stroke-width="0.5"/><line x1="0" y1="23" x2="-4" y2="23" fill="none" stroke="#000" stroke-width="0.9"/><line x1="0" y1="11.5" x2="-2.5" y2="11.5" fill="none" stroke="#000" stroke-width="0.5"/><line x1="0" y1="0" x2="-4" y2="0" fill="none" stroke="#000" stroke-width="0.9"/><circle cx="17.4" cy="85.1" r="3" fill="#000"/><circle cx="69.6" cy="57.5" r="3" fill="#000"/><circle cx="139.2" cy="16.1" r="3" fill="#000"/><line x1="31.8" y1="77.5" x2="37.8" y2="83.5" stroke="#000" stroke-width="1.3"/><line x1="31.8" y1="83.5" x2="37.8" y2="77.5" stroke="#000" stroke-width="1.3"/><line x1="101.4" y1="43" x2="107.4" y2="49" stroke="#000" stroke-width="1.3"/><line x1="101.4" y1="49" x2="107.4" y2="43" stroke="#000" stroke-width="1.3"/><text x="34.8" y="105" text-anchor="middle" fill="#fff" stroke="#fff" stroke-width="2.4" font-size="9">2</text><text x="34.8" y="105" text-anchor="middle" fill="#000" font-size="9">2</text><text x="69.6" y="105" text-anchor="middle" fill="#fff" stroke="#fff" stroke-width="2.4" font-size="9">4</text><text x="69.6" y="105" text-anchor="middle" fill="#000" font-size="9">4</text><text x="104.4" y="105" text-anchor="middle" fill="#fff" stroke="#fff" stroke-width="2.4" font-size="9">6</text><text x="104.4" y="105" text-anchor="middle" fill="#000" font-size="9">6</text><text x="139.2" y="105" text-anchor="middle" fill="#fff" stroke="#fff" stroke-width="2.4" font-size="9">8</text><text x="139.2" y="105" text-anchor="middle" fill="#000" font-size="9">8</text><text x="174" y="105" text-anchor="middle" fill="#fff" stroke="#fff" stroke-width="2.4" font-size="9">10</text><text x="174" y="105" text-anchor="middle" fill="#000" font-size="9">10</text><text x="-7.5" y="95" text-anchor="end" fill="#fff" stroke="#fff" stroke-width="2.4" font-size="9">0</text><text x="-7.5" y="95" text-anchor="end" fill="#000" font-size="9">0</text><text x="-7.5" y="72" text-anchor="end" fill="#fff" stroke="#fff" stroke-width="2.4" font-size="9">10</text><text x="-7.5" y="72" text-anchor="end" fill="#000" font-size="9">10</text><text x="-7.5" y="49" text-anchor="end" fill="#fff" stroke="#fff" stroke-width="2.4" font-size="9">20</text><text x="-7.5" y="49" text-anchor="end" fill="#000" font-size="9">20</text><text x="-7.5" y="26" text-anchor="end" fill="#fff" stroke="#fff" stroke-width="2.4" font-size="9">30</text><text x="-7.5" y="26" text-anchor="end" fill="#000" font-size="9">30</text><text x="-7.5" y="3" text-anchor="end" fill="#fff" stroke="#fff" stroke-width="2.4" font-size="9">40</text><text x="-7.5" y="3" text-anchor="end" fill="#000" font-size="9">40</text><circle cx="37.85" cy="115.5" r="3" fill="#000"/><text x="47.35" y="118" fill="#000" font-size="9">Серия 1</text><line x1="95.5" y1="112.5" x2="101.5" y2="118.5" stroke="#000" stroke-width="1.3"/><line x1="95.5" y1="118.5" x2="101.5" y2="112.5" stroke="#000" stroke-width="1.3"/><text x="108" y="118" fill="#000" font-size="9">Серия 2</text></svg>