<svg class="visual-svg" xmlns="http://www.w3.org/2000/svg" viewBox="-37 -21 259 130.5" font-family="PT Sans, Segoe UI, Verdana, Arial, sans-serif" width="388.5" height="195.75"><rect x="-37" y="-21" width="259" height="130.5" fill="#fff"/><line x1="0" y1="92" x2="178.5" y2="92" fill="none" stroke="#000" stroke-width="1.5"/><polygon points="184,92 178.5,89 178.5,95" fill="#000"/><line x1="0" y1="92" x2="0" y2="-8.5" fill="none" stroke="#000" stroke-width="1.5"/><polygon points="0,-14 -3,-8.5 3,-8.5" fill="#000"/><text x="187" y="105" fill="#000" font-size="10">t, мин</text><text x="-7.5" y="-11" text-anchor="end" fill="#000" font-size="10">T, °C</text><line x1="0" y1="92" x2="0" y2="96" fill="none" stroke="#000" stroke-width="0.9"/><text x="0" y="105" text-anchor="middle" fill="#000" font-size="9">0</text><line x1="14.5" y1="92" x2="14.5" y2="94.5" fill="none" stroke="#000" stroke-width="0.5"/><line x1="29" y1="92" x2="29" y2="94.5" fill="none" stroke="#000" stroke-width="0.5"/><line x1="43.5" y1="92" x2="43.5" y2="96" fill="none" stroke="#000" stroke-width="0.9"/><text x="43.5" y="105" text-anchor="middle" fill="#000" font-size="9">3</text><line x1="58" y1="92" x2="58" y2="94.5" fill="none" stroke="#000" stroke-width="0.5"/><line x1="72.5" y1="92" x2="72.5" y2="94.5" fill="none" stroke="#000" stroke-width="0.5"/><line x1="87" y1="92" x2="87" y2="96" fill="none" stroke="#000" stroke-width="0.9"/><text x="87" y="105" text-anchor="middle" fill="#000" font-size="9">6</text><line x1="101.5" y1="92" x2="101.5" y2="94.5" fill="none" stroke="#000" stroke-width="0.5"/><line x1="116" y1="92" x2="116" y2="94.5" fill="none" stroke="#000" stroke-width="0.5"/><line x1="130.5" y1="92" x2="130.5" y2="96" fill="none" stroke="#000" stroke-width="0.9"/><text x="130.5" y="105" text-anchor="middle" fill="#000" font-size="9">9</text><line x1="145" y1="92" x2="145" y2="94.5" fill="none" stroke="#000" stroke-width="0.5"/><line x1="159.5" y1="92" x2="159.5" y2="94.5" fill="none" stroke="#000" stroke-width="0.5"/><line x1="174" y1="92" x2="174" y2="96" fill="none" stroke="#000" stroke-width="0.9"/><text x="174" y="105" text-anchor="middle" fill="#000" font-size="9">12</text><line x1="0" y1="92" x2="-4" y2="92" fill="none" stroke="#000" stroke-width="0.9"/><text x="-7.5" y="95" text-anchor="end" fill="#000" font-size="9">0</text><line x1="0" y1="82.8" x2="-2.5" y2="82.8" fill="none" stroke="#000" stroke-width="0.5"/><line x1="0" y1="73.6" x2="-4" y2="73.6" fill="none" stroke="#000" stroke-width="0.9"/><text x="-7.5" y="76.6" text-anchor="end" fill="#000" font-size="9">20</text><line x1="0" y1="64.4" x2="-2.5" y2="64.4" fill="none" stroke="#000" stroke-width="0.5"/><line x1="0" y1="55.2" x2="-4" y2="55.2" fill="none" stroke="#000" stroke-width="0.9"/><text x="-7.5" y="58.2" text-anchor="end" fill="#000" font-size="9">40</text><line x1="0" y1="46" x2="-2.5" y2="46" fill="none" stroke="#000" stroke-width="0.5"/><line x1="0" y1="36.8" x2="-4" y2="36.8" fill="none" stroke="#000" stroke-width="0.9"/><text x="-7.5" y="39.8" text-anchor="end" fill="#000" font-size="9">60</text><line x1="0" y1="27.6" x2="-2.5" y2="27.6" fill="none" stroke="#000" stroke-width="0.5"/><line x1="0" y1="18.4" x2="-4" y2="18.4" fill="none" stroke="#000" stroke-width="0.9"/><text x="-7.5" y="21.4" text-anchor="end" fill="#000" font-size="9">80</text><line x1="0" y1="9.2" x2="-2.5" y2="9.2" fill="none" stroke="#000" stroke-width="0.5"/><line x1="0" y1="0" x2="-4" y2="0" fill="none" stroke="#000" stroke-width="0.9"/><text x="-7.5" y="3" text-anchor="end" fill="#000" font-size="9">100</text><path d="M0,73.6 L58,0 L174,0" fill="none" stroke="#000" stroke-width="2"/></svg>