<svg class="visual-svg" xmlns="http://www.w3.org/2000/svg" viewBox="0 14 220 78" font-family="PT Sans, Segoe UI, Verdana, Arial, sans-serif" width="330" height="117"><rect x="0" y="14" width="220" height="78" fill="#fff"/><rect x="2" y="16" width="216" height="24" fill="#fff" stroke="#000" stroke-width="1"/><rect x="8" y="40" width="6" height="38" fill="#fff" stroke="#000" stroke-width="1"/><line x1="14" y1="40" x2="14" y2="33" fill="none" stroke="#000" stroke-width="0.9"/><text x="14" y="30.5" text-anchor="middle" fill="#000" font-size="7">0</text><line x1="18.8" y1="40" x2="18.8" y2="35.5" fill="none" stroke="#000" stroke-width="0.5"/><line x1="23.6" y1="40" x2="23.6" y2="35.5" fill="none" stroke="#000" stroke-width="0.5"/><line x1="28.4" y1="40" x2="28.4" y2="35.5" fill="none" stroke="#000" stroke-width="0.5"/><line x1="33.2" y1="40" x2="33.2" y2="35.5" fill="none" stroke="#000" stroke-width="0.5"/><line x1="38" y1="40" x2="38" y2="35.5" fill="none" stroke="#000" stroke-width="0.5"/><line x1="42.8" y1="40" x2="42.8" y2="35.5" fill="none" stroke="#000" stroke-width="0.5"/><line x1="47.6" y1="40" x2="47.6" y2="35.5" fill="none" stroke="#000" stroke-width="0.5"/><line x1="52.4" y1="40" x2="52.4" y2="35.5" fill="none" stroke="#000" stroke-width="0.5"/><line x1="57.2" y1="40" x2="57.2" y2="35.5" fill="none" stroke="#000" stroke-width="0.5"/><line x1="62" y1="40" x2="62" y2="33" fill="none" stroke="#000" stroke-width="0.9"/><text x="62" y="30.5" text-anchor="middle" fill="#000" font-size="7">10</text><line x1="66.8" y1="40" x2="66.8" y2="35.5" fill="none" stroke="#000" stroke-width="0.5"/><line x1="71.6" y1="40" x2="71.6" y2="35.5" fill="none" stroke="#000" stroke-width="0.5"/><line x1="76.4" y1="40" x2="76.4" y2="35.5" fill="none" stroke="#000" stroke-width="0.5"/><line x1="81.2" y1="40" x2="81.2" y2="35.5" fill="none" stroke="#000" stroke-width="0.5"/><line x1="86" y1="40" x2="86" y2="35.5" fill="none" stroke="#000" stroke-width="0.5"/><line x1="90.8" y1="40" x2="90.8" y2="35.5" fill="none" stroke="#000" stroke-width="0.5"/><line x1="95.6" y1="40" x2="95.6" y2="35.5" fill="none" stroke="#000" stroke-width="0.5"/><line x1="100.4" y1="40" x2="100.4" y2="35.5" fill="none" stroke="#000" stroke-width="0.5"/><line x1="105.2" y1="40" x2="105.2" y2="35.5" fill="none" stroke="#000" stroke-width="0.5"/><line x1="110" y1="40" x2="110" y2="33" fill="none" stroke="#000" stroke-width="0.9"/><text x="110" y="30.5" text-anchor="middle" fill="#000" font-size="7">20</text><line x1="114.8" y1="40" x2="114.8" y2="35.5" fill="none" stroke="#000" stroke-width="0.5"/><line x1="119.6" y1="40" x2="119.6" y2="35.5" fill="none" stroke="#000" stroke-width="0.5"/><line x1="124.4" y1="40" x2="124.4" y2="35.5" fill="none" stroke="#000" stroke-width="0.5"/><line x1="129.2" y1="40" x2="129.2" y2="35.5" fill="none" stroke="#000" stroke-width="0.5"/><line x1="134" y1="40" x2="134" y2="35.5" fill="none" stroke="#000" stroke-width="0.5"/><line x1="138.8" y1="40" x2="138.8" y2="35.5" fill="none" stroke="#000" stroke-width="0.5"/><line x1="143.6" y1="40" x2="143.6" y2="35.5" fill="none" stroke="#000" stroke-width="0.5"/><line x1="148.4" y1="40" x2="148.4" y2="35.5" fill="none" stroke="#000" stroke-width="0.5"/><line x1="153.2" y1="40" x2="153.2" y2="35.5" fill="none" stroke="#000" stroke-width="0.5"/><line x1="158" y1="40" x2="158" y2="33" fill="none" stroke="#000" stroke-width="0.9"/><text x="158" y="30.5" text-anchor="middle" fill="#000" font-size="7">30</text><line x1="162.8" y1="40" x2="162.8" y2="35.5" fill="none" stroke="#000" stroke-width="0.5"/><line x1="167.6" y1="40" x2="167.6" y2="35.5" fill="none" stroke="#000" stroke-width="0.5"/><line x1="172.4" y1="40" x2="172.4" y2="35.5" fill="none" stroke="#000" stroke-width="0.5"/><line x1="177.2" y1="40" x2="177.2" y2="35.5" fill="none" stroke="#000" stroke-width="0.5"/><line x1="182" y1="40" x2="182" y2="35.5" fill="none" stroke="#000" stroke-width="0.5"/><line x1="186.8" y1="40" x2="186.8" y2="35.5" fill="none" stroke="#000" stroke-width="0.5"/><line x1="191.6" y1="40" x2="191.6" y2="35.5" fill="none" stroke="#000" stroke-width="0.5"/><line x1="196.4" y1="40" x2="196.4" y2="35.5" fill="none" stroke="#000" stroke-width="0.5"/><line x1="201.2" y1="40" x2="201.2" y2="35.5" fill="none" stroke="#000" stroke-width="0.5"/><line x1="206" y1="40" x2="206" y2="33" fill="none" stroke="#000" stroke-width="0.9"/><text x="206" y="30.5" text-anchor="middle" fill="#000" font-size="7">40</text><text x="206" y="24.5" text-anchor="end" fill="#000" font-size="7">мм</text><rect x="145.52" y="40" width="51.2" height="18" fill="#fff" stroke="#000" stroke-width="1"/><rect x="145.52" y="40" width="6" height="38" fill="#fff" stroke="#000" stroke-width="1"/><line x1="145.52" y1="40" x2="145.52" y2="46" fill="none" stroke="#000" stroke-width="0.9"/><text x="145.52" y="54.5" text-anchor="middle" fill="#000" font-size="6">0</text><line x1="149.84" y1="40" x2="149.84" y2="44" fill="none" stroke="#000" stroke-width="0.5"/><line x1="154.16" y1="40" x2="154.16" y2="44" fill="none" stroke="#000" stroke-width="0.5"/><line x1="158.48" y1="40" x2="158.48" y2="44" fill="none" stroke="#000" stroke-width="0.5"/><line x1="162.8" y1="40" x2="162.8" y2="44" fill="none" stroke="#000" stroke-width="0.5"/><line x1="167.12" y1="40" x2="167.12" y2="46" fill="none" stroke="#000" stroke-width="0.9"/><text x="167.12" y="54.5" text-anchor="middle" fill="#000" font-size="6">5</text><line x1="171.44" y1="40" x2="171.44" y2="44" fill="none" stroke="#000" stroke-width="0.5"/><line x1="175.76" y1="40" x2="175.76" y2="44" fill="none" stroke="#000" stroke-width="0.5"/><line x1="180.08" y1="40" x2="180.08" y2="44" fill="none" stroke="#000" stroke-width="0.5"/><line x1="184.4" y1="40" x2="184.4" y2="44" fill="none" stroke="#000" stroke-width="0.5"/><line x1="188.72" y1="40" x2="188.72" y2="46" fill="none" stroke="#000" stroke-width="0.9"/><text x="188.72" y="54.5" text-anchor="middle" fill="#000" font-size="6">10</text><rect x="14" y="60" width="131.52" height="14" fill="#fff" stroke="#000" stroke-width="1"/><line x1="20.36" y1="60" x2="14" y2="66.36" fill="none" stroke="#000" stroke-width="0.4"/><line x1="26.73" y1="60" x2="14" y2="72.73" fill="none" stroke="#000" stroke-width="0.4"/><line x1="33.09" y1="60" x2="19.09" y2="74" fill="none" stroke="#000" stroke-width="0.4"/><line x1="39.46" y1="60" x2="25.46" y2="74" fill="none" stroke="#000" stroke-width="0.4"/><line x1="45.82" y1="60" x2="31.82" y2="74" fill="none" stroke="#000" stroke-width="0.4"/><line x1="52.18" y1="60" x2="38.18" y2="74" fill="none" stroke="#000" stroke-width="0.4"/><line x1="58.55" y1="60" x2="44.55" y2="74" fill="none" stroke="#000" stroke-width="0.4"/><line x1="64.91" y1="60" x2="50.91" y2="74" fill="none" stroke="#000" stroke-width="0.4"/><line x1="71.28" y1="60" x2="57.28" y2="74" fill="none" stroke="#000" stroke-width="0.4"/><line x1="77.64" y1="60" x2="63.64" y2="74" fill="none" stroke="#000" stroke-width="0.4"/><line x1="84" y1="60" x2="70" y2="74" fill="none" stroke="#000" stroke-width="0.4"/><line x1="90.37" y1="60" x2="76.37" y2="74" fill="none" stroke="#000" stroke-width="0.4"/><line x1="96.73" y1="60" x2="82.73" y2="74" fill="none" stroke="#000" stroke-width="0.4"/><line x1="103.1" y1="60" x2="89.1" y2="74" fill="none" stroke="#000" stroke-width="0.4"/><line x1="109.46" y1="60" x2="95.46" y2="74" fill="none" stroke="#000" stroke-width="0.4"/><line x1="115.82" y1="60" x2="101.82" y2="74" fill="none" stroke="#000" stroke-width="0.4"/><line x1="122.19" y1="60" x2="108.19" y2="74" fill="none" stroke="#000" stroke-width="0.4"/><line x1="128.55" y1="60" x2="114.55" y2="74" fill="none" stroke="#000" stroke-width="0.4"/><line x1="134.92" y1="60" x2="120.92" y2="74" fill="none" stroke="#000" stroke-width="0.4"/><line x1="141.28" y1="60" x2="127.28" y2="74" fill="none" stroke="#000" stroke-width="0.4"/><line x1="145.52" y1="62.12" x2="133.64" y2="74" fill="none" stroke="#000" stroke-width="0.4"/><line x1="145.52" y1="68.49" x2="140.01" y2="74" fill="none" stroke="#000" stroke-width="0.4"/><text x="110" y="88" text-anchor="middle" fill="#000" font-size="8">Штангенциркуль</text></svg>