<svg class="visual-svg" xmlns="http://www.w3.org/2000/svg" viewBox="18 1 44.5 163.5" font-family="PT Sans, Segoe UI, Verdana, Arial, sans-serif" width="66.75" height="245.25"><rect x="18" y="1" width="44.5" height="163.5" fill="#fff"/><rect x="26" y="12.5" width="12" height="117.5" rx="6" fill="#fff" stroke="#000" stroke-width="1"/><circle cx="32" cy="141" r="9.5" fill="#fff" stroke="#000" stroke-width="1"/><line x1="38" y1="122" x2="47" y2="122" stroke="#000" stroke-width="0.8"/><text x="46.5" y="124.4" fill="#000" font-size="7">-20</text><line x1="38" y1="120.33" x2="43.5" y2="120.33" fill="none" stroke="#000" stroke-width="0.5"/><line x1="38" y1="118.67" x2="43.5" y2="118.67" fill="none" stroke="#000" stroke-width="0.5"/><line x1="38" y1="117" x2="43.5" y2="117" fill="none" stroke="#000" stroke-width="0.5"/><line x1="38" y1="115.33" x2="43.5" y2="115.33" fill="none" stroke="#000" stroke-width="0.5"/><line x1="38" y1="113.67" x2="43.5" y2="113.67" fill="none" stroke="#000" stroke-width="0.5"/><line x1="38" y1="112" x2="43.5" y2="112" fill="none" stroke="#000" stroke-width="0.5"/><line x1="38" y1="110.33" x2="43.5" y2="110.33" fill="none" stroke="#000" stroke-width="0.5"/><line x1="38" y1="108.67" x2="43.5" y2="108.67" fill="none" stroke="#000" stroke-width="0.5"/><line x1="38" y1="107" x2="43.5" y2="107" fill="none" stroke="#000" stroke-width="0.5"/><line x1="38" y1="105.33" x2="47" y2="105.33" stroke="#000" stroke-width="0.8"/><text x="46.5" y="107.73" fill="#000" font-size="7">0</text><line x1="38" y1="103.67" x2="43.5" y2="103.67" fill="none" stroke="#000" stroke-width="0.5"/><line x1="38" y1="102" x2="43.5" y2="102" fill="none" stroke="#000" stroke-width="0.5"/><line x1="38" y1="100.33" x2="43.5" y2="100.33" fill="none" stroke="#000" stroke-width="0.5"/><line x1="38" y1="98.67" x2="43.5" y2="98.67" fill="none" stroke="#000" stroke-width="0.5"/><line x1="38" y1="97" x2="43.5" y2="97" fill="none" stroke="#000" stroke-width="0.5"/><line x1="38" y1="95.33" x2="43.5" y2="95.33" fill="none" stroke="#000" stroke-width="0.5"/><line x1="38" y1="93.67" x2="43.5" y2="93.67" fill="none" stroke="#000" stroke-width="0.5"/><line x1="38" y1="92" x2="43.5" y2="92" fill="none" stroke="#000" stroke-width="0.5"/><line x1="38" y1="90.33" x2="43.5" y2="90.33" fill="none" stroke="#000" stroke-width="0.5"/><line x1="38" y1="88.67" x2="47" y2="88.67" stroke="#000" stroke-width="0.8"/><text x="46.5" y="91.07" fill="#000" font-size="7">20</text><line x1="38" y1="87" x2="43.5" y2="87" fill="none" stroke="#000" stroke-width="0.5"/><line x1="38" y1="85.33" x2="43.5" y2="85.33" fill="none" stroke="#000" stroke-width="0.5"/><line x1="38" y1="83.67" x2="43.5" y2="83.67" fill="none" stroke="#000" stroke-width="0.5"/><line x1="38" y1="82" x2="43.5" y2="82" fill="none" stroke="#000" stroke-width="0.5"/><line x1="38" y1="80.33" x2="43.5" y2="80.33" fill="none" stroke="#000" stroke-width="0.5"/><line x1="38" y1="78.67" x2="43.5" y2="78.67" fill="none" stroke="#000" stroke-width="0.5"/><line x1="38" y1="77" x2="43.5" y2="77" fill="none" stroke="#000" stroke-width="0.5"/><line x1="38" y1="75.33" x2="43.5" y2="75.33" fill="none" stroke="#000" stroke-width="0.5"/><line x1="38" y1="73.67" x2="43.5" y2="73.67" fill="none" stroke="#000" stroke-width="0.5"/><line x1="38" y1="72" x2="47" y2="72" stroke="#000" stroke-width="0.8"/><text x="46.5" y="74.4" fill="#000" font-size="7">40</text><line x1="38" y1="70.33" x2="43.5" y2="70.33" fill="none" stroke="#000" stroke-width="0.5"/><line x1="38" y1="68.67" x2="43.5" y2="68.67" fill="none" stroke="#000" stroke-width="0.5"/><line x1="38" y1="67" x2="43.5" y2="67" fill="none" stroke="#000" stroke-width="0.5"/><line x1="38" y1="65.33" x2="43.5" y2="65.33" fill="none" stroke="#000" stroke-width="0.5"/><line x1="38" y1="63.67" x2="43.5" y2="63.67" fill="none" stroke="#000" stroke-width="0.5"/><line x1="38" y1="62" x2="43.5" y2="62" fill="none" stroke="#000" stroke-width="0.5"/><line x1="38" y1="60.33" x2="43.5" y2="60.33" fill="none" stroke="#000" stroke-width="0.5"/><line x1="38" y1="58.67" x2="43.5" y2="58.67" fill="none" stroke="#000" stroke-width="0.5"/><line x1="38" y1="57" x2="43.5" y2="57" fill="none" stroke="#000" stroke-width="0.5"/><line x1="38" y1="55.33" x2="47" y2="55.33" stroke="#000" stroke-width="0.8"/><text x="46.5" y="57.73" fill="#000" font-size="7">60</text><line x1="38" y1="53.67" x2="43.5" y2="53.67" fill="none" stroke="#000" stroke-width="0.5"/><line x1="38" y1="52" x2="43.5" y2="52" fill="none" stroke="#000" stroke-width="0.5"/><line x1="38" y1="50.33" x2="43.5" y2="50.33" fill="none" stroke="#000" stroke-width="0.5"/><line x1="38" y1="48.67" x2="43.5" y2="48.67" fill="none" stroke="#000" stroke-width="0.5"/><line x1="38" y1="47" x2="43.5" y2="47" fill="none" stroke="#000" stroke-width="0.5"/><line x1="38" y1="45.33" x2="43.5" y2="45.33" fill="none" stroke="#000" stroke-width="0.5"/><line x1="38" y1="43.67" x2="43.5" y2="43.67" fill="none" stroke="#000" stroke-width="0.5"/><line x1="38" y1="42" x2="43.5" y2="42" fill="none" stroke="#000" stroke-width="0.5"/><line x1="38" y1="40.33" x2="43.5" y2="40.33" fill="none" stroke="#000" stroke-width="0.5"/><line x1="38" y1="38.67" x2="47" y2="38.67" stroke="#000" stroke-width="0.8"/><text x="46.5" y="41.07" fill="#000" font-size="7">80</text><line x1="38" y1="37" x2="43.5" y2="37" fill="none" stroke="#000" stroke-width="0.5"/><line x1="38" y1="35.33" x2="43.5" y2="35.33" fill="none" stroke="#000" stroke-width="0.5"/><line x1="38" y1="33.67" x2="43.5" y2="33.67" fill="none" stroke="#000" stroke-width="0.5"/><line x1="38" y1="32" x2="43.5" y2="32" fill="none" stroke="#000" stroke-width="0.5"/><line x1="38" y1="30.33" x2="43.5" y2="30.33" fill="none" stroke="#000" stroke-width="0.5"/><line x1="38" y1="28.67" x2="43.5" y2="28.67" fill="none" stroke="#000" stroke-width="0.5"/><line x1="38" y1="27" x2="43.5" y2="27" fill="none" stroke="#000" stroke-width="0.5"/><line x1="38" y1="25.33" x2="43.5" y2="25.33" fill="none" stroke="#000" stroke-width="0.5"/><line x1="38" y1="23.67" x2="43.5" y2="23.67" fill="none" stroke="#000" stroke-width="0.5"/><line x1="38" y1="22" x2="47" y2="22" stroke="#000" stroke-width="0.8"/><text x="46.5" y="24.4" fill="#000" font-size="7">100</text><text x="32" y="8.8" text-anchor="middle" fill="#000" font-size="7">°C</text><rect x="29.5" y="74.83" width="5" height="53.17" fill="#000"/><circle cx="32" cy="141" r="6.5" fill="#000"/><text x="40.27" y="160.5" text-anchor="middle" fill="#000" font-size="8">Термометр</text></svg>