<svg class="visual-svg" xmlns="http://www.w3.org/2000/svg" viewBox="5 23.5 160 69.5" font-family="PT Sans, Segoe UI, Verdana, Arial, sans-serif" width="240" height="104.25"><rect x="5" y="23.5" width="160" height="69.5" fill="#fff"/><rect x="59" y="74" width="52" height="5" fill="#fff" stroke="#000" stroke-width="1"/><line x1="85" y1="74" x2="85" y2="28" fill="none" stroke="#000" stroke-width="1.5"/><line x1="81" y1="52" x2="89" y2="52" fill="none" stroke="#000" stroke-width="0.5"/><line x1="27" y1="28" x2="143" y2="28" stroke="#000" stroke-width="1.8"/><line x1="85" y1="28" x2="85" y2="50" fill="none" stroke="#000" stroke-width="0.9"/><circle cx="85" cy="28" r="2.5" fill="#000"/><line x1="27" y1="28" x2="7" y2="58" stroke="#000" stroke-width="0.7"/><line x1="27" y1="28" x2="47" y2="58" stroke="#000" stroke-width="0.7"/><line x1="7" y1="58" x2="47" y2="58" fill="none" stroke="#000" stroke-width="1.2"/><line x1="143" y1="28" x2="123" y2="58" stroke="#000" stroke-width="0.7"/><line x1="143" y1="28" x2="163" y2="58" stroke="#000" stroke-width="0.7"/><line x1="123" y1="58" x2="163" y2="58" fill="none" stroke="#000" stroke-width="1.2"/><rect x="16" y="45" width="22" height="13" fill="#fff" stroke="#000" stroke-width="1"/><line x1="22.36" y1="45" x2="16" y2="51.36" fill="none" stroke="#000" stroke-width="0.4"/><line x1="28.73" y1="45" x2="16" y2="57.73" fill="none" stroke="#000" stroke-width="0.4"/><line x1="35.09" y1="45" x2="22.09" y2="58" fill="none" stroke="#000" stroke-width="0.4"/><line x1="38" y1="48.46" x2="28.46" y2="58" fill="none" stroke="#000" stroke-width="0.4"/><line x1="38" y1="54.82" x2="34.82" y2="58" fill="none" stroke="#000" stroke-width="0.4"/><rect x="124" y="44" width="8" height="14" fill="#fff" stroke="#000" stroke-width="1"/><rect x="126.5" y="42" width="3" height="2" fill="#000"/><text x="128" y="40" text-anchor="middle" fill="#000" font-size="6">100</text><rect x="134" y="50.4" width="8" height="7.6" fill="#fff" stroke="#000" stroke-width="1"/><rect x="136.5" y="48.4" width="3" height="2" fill="#000"/><text x="138" y="46.4" text-anchor="middle" fill="#000" font-size="6">20</text><rect x="144" y="51.2" width="8" height="6.8" fill="#fff" stroke="#000" stroke-width="1"/><rect x="146.5" y="49.2" width="3" height="2" fill="#000"/><text x="148" y="47.2" text-anchor="middle" fill="#000" font-size="6">10</text><rect x="154" y="51.6" width="8" height="6.4" fill="#fff" stroke="#000" stroke-width="1"/><rect x="156.5" y="49.6" width="3" height="2" fill="#000"/><text x="158" y="47.6" text-anchor="middle" fill="#000" font-size="6">5</text><text x="85" y="89" text-anchor="middle" fill="#000" font-size="8">Рычажные весы с набором гирь</text></svg>