<svg class="visual-svg" xmlns="http://www.w3.org/2000/svg" viewBox="14 1.5 48 164.5" font-family="PT Sans, Segoe UI, Verdana, Arial, sans-serif" width="72" height="246.75"><rect x="14" y="1.5" width="48" height="164.5" fill="#fff"/><circle cx="38" cy="8" r="4.5" fill="none" stroke="#000" stroke-width="0.9"/><line x1="38" y1="12.5" x2="38" y2="16" fill="none" stroke="#000" stroke-width="0.9"/><line x1="38" y1="128" x2="38" y2="138" fill="none" stroke="#000" stroke-width="0.9"/><path d="M38,138 C46,140 46,152 37,152 C32,152 30,148 31,145" fill="none" stroke="#000" stroke-width="1.2"/><rect x="22" y="16" width="32" height="112" rx="3" fill="#fff" stroke="#000" stroke-width="1"/><text x="46" y="26" text-anchor="middle" fill="#000" font-size="7">Н</text><line x1="40" y1="120" x2="49" y2="120" stroke="#000" stroke-width="0.8"/><text x="36.5" y="122.4" text-anchor="end" fill="#000" font-size="7">0</text><line x1="40" y1="118.2" x2="45.5" y2="118.2" fill="none" stroke="#000" stroke-width="0.5"/><line x1="40" y1="116.4" x2="45.5" y2="116.4" fill="none" stroke="#000" stroke-width="0.5"/><line x1="40" y1="114.6" x2="45.5" y2="114.6" fill="none" stroke="#000" stroke-width="0.5"/><line x1="40" y1="112.8" x2="45.5" y2="112.8" fill="none" stroke="#000" stroke-width="0.5"/><line x1="40" y1="111" x2="45.5" y2="111" fill="none" stroke="#000" stroke-width="0.5"/><line x1="40" y1="109.2" x2="45.5" y2="109.2" fill="none" stroke="#000" stroke-width="0.5"/><line x1="40" y1="107.4" x2="45.5" y2="107.4" fill="none" stroke="#000" stroke-width="0.5"/><line x1="40" y1="105.6" x2="45.5" y2="105.6" fill="none" stroke="#000" stroke-width="0.5"/><line x1="40" y1="103.8" x2="45.5" y2="103.8" fill="none" stroke="#000" stroke-width="0.5"/><line x1="40" y1="102" x2="49" y2="102" stroke="#000" stroke-width="0.8"/><text x="36.5" y="104.4" text-anchor="end" fill="#000" font-size="7">1</text><line x1="40" y1="100.2" x2="45.5" y2="100.2" fill="none" stroke="#000" stroke-width="0.5"/><line x1="40" y1="98.4" x2="45.5" y2="98.4" fill="none" stroke="#000" stroke-width="0.5"/><line x1="40" y1="96.6" x2="45.5" y2="96.6" fill="none" stroke="#000" stroke-width="0.5"/><line x1="40" y1="94.8" x2="45.5" y2="94.8" fill="none" stroke="#000" stroke-width="0.5"/><line x1="40" y1="93" x2="45.5" y2="93" fill="none" stroke="#000" stroke-width="0.5"/><line x1="40" y1="91.2" x2="45.5" y2="91.2" fill="none" stroke="#000" stroke-width="0.5"/><line x1="40" y1="89.4" x2="45.5" y2="89.4" fill="none" stroke="#000" stroke-width="0.5"/><line x1="40" y1="87.6" x2="45.5" y2="87.6" fill="none" stroke="#000" stroke-width="0.5"/><line x1="40" y1="85.8" x2="45.5" y2="85.8" fill="none" stroke="#000" stroke-width="0.5"/><line x1="40" y1="84" x2="49" y2="84" stroke="#000" stroke-width="0.8"/><text x="36.5" y="86.4" text-anchor="end" fill="#000" font-size="7">2</text><line x1="40" y1="82.2" x2="45.5" y2="82.2" fill="none" stroke="#000" stroke-width="0.5"/><line x1="40" y1="80.4" x2="45.5" y2="80.4" fill="none" stroke="#000" stroke-width="0.5"/><line x1="40" y1="78.6" x2="45.5" y2="78.6" fill="none" stroke="#000" stroke-width="0.5"/><line x1="40" y1="76.8" x2="45.5" y2="76.8" fill="none" stroke="#000" stroke-width="0.5"/><line x1="40" y1="75" x2="45.5" y2="75" fill="none" stroke="#000" stroke-width="0.5"/><line x1="40" y1="73.2" x2="45.5" y2="73.2" fill="none" stroke="#000" stroke-width="0.5"/><line x1="40" y1="71.4" x2="45.5" y2="71.4" fill="none" stroke="#000" stroke-width="0.5"/><line x1="40" y1="69.6" x2="45.5" y2="69.6" fill="none" stroke="#000" stroke-width="0.5"/><line x1="40" y1="67.8" x2="45.5" y2="67.8" fill="none" stroke="#000" stroke-width="0.5"/><line x1="40" y1="66" x2="49" y2="66" stroke="#000" stroke-width="0.8"/><text x="36.5" y="68.4" text-anchor="end" fill="#000" font-size="7">3</text><line x1="40" y1="64.2" x2="45.5" y2="64.2" fill="none" stroke="#000" stroke-width="0.5"/><line x1="40" y1="62.4" x2="45.5" y2="62.4" fill="none" stroke="#000" stroke-width="0.5"/><line x1="40" y1="60.6" x2="45.5" y2="60.6" fill="none" stroke="#000" stroke-width="0.5"/><line x1="40" y1="58.8" x2="45.5" y2="58.8" fill="none" stroke="#000" stroke-width="0.5"/><line x1="40" y1="57" x2="45.5" y2="57" fill="none" stroke="#000" stroke-width="0.5"/><line x1="40" y1="55.2" x2="45.5" y2="55.2" fill="none" stroke="#000" stroke-width="0.5"/><line x1="40" y1="53.4" x2="45.5" y2="53.4" fill="none" stroke="#000" stroke-width="0.5"/><line x1="40" y1="51.6" x2="45.5" y2="51.6" fill="none" stroke="#000" stroke-width="0.5"/><line x1="40" y1="49.8" x2="45.5" y2="49.8" fill="none" stroke="#000" stroke-width="0.5"/><line x1="40" y1="48" x2="49" y2="48" stroke="#000" stroke-width="0.8"/><text x="36.5" y="50.4" text-anchor="end" fill="#000" font-size="7">4</text><line x1="40" y1="46.2" x2="45.5" y2="46.2" fill="none" stroke="#000" stroke-width="0.5"/><line x1="40" y1="44.4" x2="45.5" y2="44.4" fill="none" stroke="#000" stroke-width="0.5"/><line x1="40" y1="42.6" x2="45.5" y2="42.6" fill="none" stroke="#000" stroke-width="0.5"/><line x1="40" y1="40.8" x2="45.5" y2="40.8" fill="none" stroke="#000" stroke-width="0.5"/><line x1="40" y1="39" x2="45.5" y2="39" fill="none" stroke="#000" stroke-width="0.5"/><line x1="40" y1="37.2" x2="45.5" y2="37.2" fill="none" stroke="#000" stroke-width="0.5"/><line x1="40" y1="35.4" x2="45.5" y2="35.4" fill="none" stroke="#000" stroke-width="0.5"/><line x1="40" y1="33.6" x2="45.5" y2="33.6" fill="none" stroke="#000" stroke-width="0.5"/><line x1="40" y1="31.8" x2="45.5" y2="31.8" fill="none" stroke="#000" stroke-width="0.5"/><line x1="40" y1="30" x2="49" y2="30" stroke="#000" stroke-width="0.8"/><text x="36.5" y="32.4" text-anchor="end" fill="#000" font-size="7">5</text><line x1="25" y1="62.4" x2="49" y2="62.4" stroke="#000" stroke-width="1.3"/><text x="38" y="162" text-anchor="middle" fill="#000" font-size="8">Динамометр</text></svg>