<svg xmlns="http://www.w3.org/2000/svg" width="240" height="186" viewBox="0 0 160 124" font-family="PT Sans, Segoe UI, Verdana, Arial, sans-serif"><rect x="0" y="0" width="160" height="124" fill="#fff"/><rect x="1.5" y="1.5" width="157" height="107" rx="6" fill="#fff" stroke="#000" stroke-width="1.2"/><path d="M29.8,59.0 A58.0,58.0 0 0 1 130.2,59.0" fill="none" stroke="#000" stroke-width="1"/><line x1="29.8" y1="59.0" x2="23.3" y2="55.3" stroke="#000" stroke-width="0.9"/><text x="17.6" y="54.5" font-size="7" text-anchor="middle">-1</text><text x="39.3" y="67.0" font-size="7" text-anchor="middle">-0.2</text><line x1="31.4" y1="56.4" x2="27.6" y2="54.0" stroke="#000" stroke-width="0.5"/><line x1="33.1" y1="53.9" x2="29.4" y2="51.3" stroke="#000" stroke-width="0.5"/><line x1="34.9" y1="51.5" x2="31.4" y2="48.7" stroke="#000" stroke-width="0.5"/><line x1="36.9" y1="49.2" x2="33.6" y2="46.2" stroke="#000" stroke-width="0.5"/><line x1="39.0" y1="47.0" x2="35.8" y2="43.8" stroke="#000" stroke-width="0.5"/><line x1="41.2" y1="44.9" x2="38.2" y2="41.6" stroke="#000" stroke-width="0.5"/><line x1="43.5" y1="42.9" x2="40.7" y2="39.4" stroke="#000" stroke-width="0.5"/><line x1="45.9" y1="41.1" x2="43.3" y2="37.4" stroke="#000" stroke-width="0.5"/><line x1="48.4" y1="39.4" x2="46.0" y2="35.6" stroke="#000" stroke-width="0.5"/><line x1="51.0" y1="37.8" x2="47.3" y2="31.3" stroke="#000" stroke-width="0.9"/><text x="44.0" y="28.1" font-size="7" text-anchor="middle">0</text><text x="56.5" y="49.8" font-size="7" text-anchor="middle">0</text><line x1="53.7" y1="36.3" x2="51.6" y2="32.3" stroke="#000" stroke-width="0.5"/><line x1="56.4" y1="35.0" x2="54.6" y2="30.9" stroke="#000" stroke-width="0.5"/><line x1="59.2" y1="33.9" x2="57.6" y2="29.7" stroke="#000" stroke-width="0.5"/><line x1="62.1" y1="32.8" x2="60.7" y2="28.6" stroke="#000" stroke-width="0.5"/><line x1="65.0" y1="32.0" x2="63.8" y2="27.6" stroke="#000" stroke-width="0.5"/><line x1="67.9" y1="31.3" x2="67.0" y2="26.9" stroke="#000" stroke-width="0.5"/><line x1="70.9" y1="30.7" x2="70.2" y2="26.3" stroke="#000" stroke-width="0.5"/><line x1="73.9" y1="30.3" x2="73.5" y2="25.8" stroke="#000" stroke-width="0.5"/><line x1="77.0" y1="30.1" x2="76.7" y2="25.6" stroke="#000" stroke-width="0.5"/><line x1="80.0" y1="30.0" x2="80.0" y2="22.5" stroke="#000" stroke-width="0.9"/><text x="80.0" y="18.5" font-size="7" text-anchor="middle">1</text><text x="80.0" y="43.5" font-size="7" text-anchor="middle">0.2</text><line x1="83.0" y1="30.1" x2="83.3" y2="25.6" stroke="#000" stroke-width="0.5"/><line x1="86.1" y1="30.3" x2="86.5" y2="25.8" stroke="#000" stroke-width="0.5"/><line x1="89.1" y1="30.7" x2="89.8" y2="26.3" stroke="#000" stroke-width="0.5"/><line x1="92.1" y1="31.3" x2="93.0" y2="26.9" stroke="#000" stroke-width="0.5"/><line x1="95.0" y1="32.0" x2="96.2" y2="27.6" stroke="#000" stroke-width="0.5"/><line x1="97.9" y1="32.8" x2="99.3" y2="28.6" stroke="#000" stroke-width="0.5"/><line x1="100.8" y1="33.9" x2="102.4" y2="29.7" stroke="#000" stroke-width="0.5"/><line x1="103.6" y1="35.0" x2="105.4" y2="30.9" stroke="#000" stroke-width="0.5"/><line x1="106.3" y1="36.3" x2="108.4" y2="32.3" stroke="#000" stroke-width="0.5"/><line x1="109.0" y1="37.8" x2="112.8" y2="31.3" stroke="#000" stroke-width="0.9"/><text x="116.0" y="28.1" font-size="7" text-anchor="middle">2</text><text x="103.5" y="49.8" font-size="7" text-anchor="middle">0.4</text><line x1="111.6" y1="39.4" x2="114.0" y2="35.6" stroke="#000" stroke-width="0.5"/><line x1="114.1" y1="41.1" x2="116.7" y2="37.4" stroke="#000" stroke-width="0.5"/><line x1="116.5" y1="42.9" x2="119.3" y2="39.4" stroke="#000" stroke-width="0.5"/><line x1="118.8" y1="44.9" x2="121.8" y2="41.6" stroke="#000" stroke-width="0.5"/><line x1="121.0" y1="47.0" x2="124.2" y2="43.8" stroke="#000" stroke-width="0.5"/><line x1="123.1" y1="49.2" x2="126.4" y2="46.2" stroke="#000" stroke-width="0.5"/><line x1="125.1" y1="51.5" x2="128.6" y2="48.7" stroke="#000" stroke-width="0.5"/><line x1="126.9" y1="53.9" x2="130.6" y2="51.3" stroke="#000" stroke-width="0.5"/><line x1="128.6" y1="56.4" x2="132.4" y2="54.0" stroke="#000" stroke-width="0.5"/><line x1="130.2" y1="59.0" x2="136.7" y2="55.3" stroke="#000" stroke-width="0.9"/><text x="142.4" y="54.5" font-size="7" text-anchor="middle">3</text><text x="120.7" y="67.0" font-size="7" text-anchor="middle">0.6</text><circle cx="80.0" cy="66" r="8" fill="#fff" stroke="#000" stroke-width="0.8"/><text x="80.0" y="68.8" font-size="8" text-anchor="middle">А</text><line x1="80.0" y1="88.0" x2="102.4" y2="41.1" stroke="#000" stroke-width="1.5"/><circle cx="80.0" cy="88.0" r="3.5" fill="#000"/><text x="10.0" y="103.0" font-size="7" text-anchor="start">2.5</text><circle cx="36.0" cy="99" r="3" fill="#fff" stroke="#000" stroke-width="1"/><text x="36.0" y="93.0" font-size="6" text-anchor="middle">&#8722;</text><circle cx="80.0" cy="99" r="3" fill="#fff" stroke="#000" stroke-width="1"/><text x="80.0" y="93.0" font-size="6" text-anchor="middle">0.6А</text><circle cx="124.0" cy="99" r="3" fill="#fff" stroke="#000" stroke-width="1"/><text x="124.0" y="93.0" font-size="6" text-anchor="middle">3А</text><text x="80.0" y="120.0" font-size="8" text-anchor="middle">Двухпредельный амперметр</text></svg>