<svg xmlns="http://www.w3.org/2000/svg" width="180" height="219" viewBox="0 0 120 146" font-family="PT Sans, Segoe UI, Verdana, Arial, sans-serif"><rect x="0" y="0" width="120" height="146" fill="#fff"/><rect x="55" y="6" width="10" height="9" rx="1.5" fill="#fff" stroke="#000" stroke-width="1"/><line x1="60.0" y1="15.0" x2="60.0" y2="20.0" stroke="#000" stroke-width="1.2"/><circle cx="60.0" cy="74.0" r="54.0" fill="#fff" stroke="#000" stroke-width="1.2"/><line x1="62.0" y1="27.0" x2="61.8" y2="31.0" stroke="#000" stroke-width="0.5"/><line x1="63.9" y1="27.2" x2="63.6" y2="31.2" stroke="#000" stroke-width="0.5"/><line x1="65.9" y1="27.4" x2="65.4" y2="31.3" stroke="#000" stroke-width="0.5"/><line x1="67.8" y1="27.7" x2="67.2" y2="31.6" stroke="#000" stroke-width="0.5"/><line x1="69.8" y1="28.0" x2="68.9" y2="31.9" stroke="#000" stroke-width="0.5"/><line x1="71.7" y1="28.5" x2="70.7" y2="32.4" stroke="#000" stroke-width="0.5"/><line x1="73.6" y1="29.0" x2="72.4" y2="32.8" stroke="#000" stroke-width="0.5"/><line x1="75.5" y1="29.6" x2="74.1" y2="33.4" stroke="#000" stroke-width="0.5"/><line x1="77.3" y1="30.3" x2="75.8" y2="34.0" stroke="#000" stroke-width="0.5"/><line x1="79.1" y1="31.1" x2="77.5" y2="34.7" stroke="#000" stroke-width="0.5"/><line x1="80.9" y1="31.9" x2="79.1" y2="35.5" stroke="#000" stroke-width="0.5"/><line x1="82.6" y1="32.8" x2="80.7" y2="36.3" stroke="#000" stroke-width="0.5"/><line x1="84.3" y1="33.8" x2="82.3" y2="37.2" stroke="#000" stroke-width="0.5"/><line x1="86.0" y1="34.9" x2="83.8" y2="38.2" stroke="#000" stroke-width="0.5"/><line x1="87.6" y1="36.0" x2="85.3" y2="39.2" stroke="#000" stroke-width="0.5"/><line x1="89.2" y1="37.2" x2="86.7" y2="40.3" stroke="#000" stroke-width="0.5"/><line x1="90.7" y1="38.4" x2="88.1" y2="41.4" stroke="#000" stroke-width="0.5"/><line x1="92.2" y1="39.7" x2="89.4" y2="42.7" stroke="#000" stroke-width="0.5"/><line x1="93.6" y1="41.1" x2="90.7" y2="43.9" stroke="#000" stroke-width="0.5"/><line x1="94.9" y1="42.6" x2="92.0" y2="45.2" stroke="#000" stroke-width="0.5"/><line x1="96.2" y1="44.0" x2="93.1" y2="46.6" stroke="#000" stroke-width="0.5"/><line x1="97.4" y1="45.6" x2="94.3" y2="48.0" stroke="#000" stroke-width="0.5"/><line x1="98.6" y1="47.2" x2="95.3" y2="49.5" stroke="#000" stroke-width="0.5"/><line x1="99.7" y1="48.8" x2="96.3" y2="51.0" stroke="#000" stroke-width="0.5"/><line x1="100.7" y1="50.5" x2="94.6" y2="54.0" stroke="#000" stroke-width="0.9"/><text x="88.6" y="59.9" font-size="7" text-anchor="middle">5</text><line x1="101.7" y1="52.2" x2="98.1" y2="54.1" stroke="#000" stroke-width="0.5"/><line x1="102.5" y1="54.0" x2="98.9" y2="55.7" stroke="#000" stroke-width="0.5"/><line x1="103.3" y1="55.8" x2="99.6" y2="57.3" stroke="#000" stroke-width="0.5"/><line x1="104.1" y1="57.6" x2="100.3" y2="59.0" stroke="#000" stroke-width="0.5"/><line x1="104.7" y1="59.5" x2="100.9" y2="60.7" stroke="#000" stroke-width="0.5"/><line x1="105.3" y1="61.4" x2="101.4" y2="62.4" stroke="#000" stroke-width="0.5"/><line x1="105.8" y1="63.3" x2="101.9" y2="64.2" stroke="#000" stroke-width="0.5"/><line x1="106.2" y1="65.2" x2="102.2" y2="65.9" stroke="#000" stroke-width="0.5"/><line x1="106.5" y1="67.1" x2="102.5" y2="67.7" stroke="#000" stroke-width="0.5"/><line x1="106.7" y1="69.1" x2="102.8" y2="69.5" stroke="#000" stroke-width="0.5"/><line x1="106.9" y1="71.0" x2="102.9" y2="71.3" stroke="#000" stroke-width="0.5"/><line x1="107.0" y1="73.0" x2="103.0" y2="73.1" stroke="#000" stroke-width="0.5"/><line x1="107.0" y1="75.0" x2="103.0" y2="74.9" stroke="#000" stroke-width="0.5"/><line x1="106.9" y1="77.0" x2="102.9" y2="76.7" stroke="#000" stroke-width="0.5"/><line x1="106.7" y1="78.9" x2="102.8" y2="78.5" stroke="#000" stroke-width="0.5"/><line x1="106.5" y1="80.9" x2="102.5" y2="80.3" stroke="#000" stroke-width="0.5"/><line x1="106.2" y1="82.8" x2="102.2" y2="82.1" stroke="#000" stroke-width="0.5"/><line x1="105.8" y1="84.7" x2="101.9" y2="83.8" stroke="#000" stroke-width="0.5"/><line x1="105.3" y1="86.6" x2="101.4" y2="85.6" stroke="#000" stroke-width="0.5"/><line x1="104.7" y1="88.5" x2="100.9" y2="87.3" stroke="#000" stroke-width="0.5"/><line x1="104.1" y1="90.4" x2="100.3" y2="89.0" stroke="#000" stroke-width="0.5"/><line x1="103.3" y1="92.2" x2="99.6" y2="90.7" stroke="#000" stroke-width="0.5"/><line x1="102.5" y1="94.0" x2="98.9" y2="92.3" stroke="#000" stroke-width="0.5"/><line x1="101.7" y1="95.8" x2="98.1" y2="93.9" stroke="#000" stroke-width="0.5"/><line x1="100.7" y1="97.5" x2="94.6" y2="94.0" stroke="#000" stroke-width="0.9"/><text x="88.6" y="92.9" font-size="7" text-anchor="middle">10</text><line x1="99.7" y1="99.2" x2="96.3" y2="97.0" stroke="#000" stroke-width="0.5"/><line x1="98.6" y1="100.8" x2="95.3" y2="98.5" stroke="#000" stroke-width="0.5"/><line x1="97.4" y1="102.4" x2="94.3" y2="100.0" stroke="#000" stroke-width="0.5"/><line x1="96.2" y1="104.0" x2="93.1" y2="101.4" stroke="#000" stroke-width="0.5"/><line x1="94.9" y1="105.4" x2="92.0" y2="102.8" stroke="#000" stroke-width="0.5"/><line x1="93.6" y1="106.9" x2="90.7" y2="104.1" stroke="#000" stroke-width="0.5"/><line x1="92.2" y1="108.3" x2="89.4" y2="105.3" stroke="#000" stroke-width="0.5"/><line x1="90.7" y1="109.6" x2="88.1" y2="106.6" stroke="#000" stroke-width="0.5"/><line x1="89.2" y1="110.8" x2="86.7" y2="107.7" stroke="#000" stroke-width="0.5"/><line x1="87.6" y1="112.0" x2="85.3" y2="108.8" stroke="#000" stroke-width="0.5"/><line x1="86.0" y1="113.1" x2="83.8" y2="109.8" stroke="#000" stroke-width="0.5"/><line x1="84.3" y1="114.2" x2="82.3" y2="110.8" stroke="#000" stroke-width="0.5"/><line x1="82.6" y1="115.2" x2="80.7" y2="111.7" stroke="#000" stroke-width="0.5"/><line x1="80.9" y1="116.1" x2="79.1" y2="112.5" stroke="#000" stroke-width="0.5"/><line x1="79.1" y1="116.9" x2="77.5" y2="113.3" stroke="#000" stroke-width="0.5"/><line x1="77.3" y1="117.7" x2="75.8" y2="114.0" stroke="#000" stroke-width="0.5"/><line x1="75.5" y1="118.4" x2="74.1" y2="114.6" stroke="#000" stroke-width="0.5"/><line x1="73.6" y1="119.0" x2="72.4" y2="115.2" stroke="#000" stroke-width="0.5"/><line x1="71.7" y1="119.5" x2="70.7" y2="115.6" stroke="#000" stroke-width="0.5"/><line x1="69.8" y1="120.0" x2="68.9" y2="116.1" stroke="#000" stroke-width="0.5"/><line x1="67.8" y1="120.3" x2="67.2" y2="116.4" stroke="#000" stroke-width="0.5"/><line x1="65.9" y1="120.6" x2="65.4" y2="116.7" stroke="#000" stroke-width="0.5"/><line x1="63.9" y1="120.8" x2="63.6" y2="116.8" stroke="#000" stroke-width="0.5"/><line x1="62.0" y1="121.0" x2="61.8" y2="117.0" stroke="#000" stroke-width="0.5"/><line x1="60.0" y1="121.0" x2="60.0" y2="114.0" stroke="#000" stroke-width="0.9"/><text x="60.0" y="109.4" font-size="7" text-anchor="middle">15</text><line x1="58.0" y1="121.0" x2="58.2" y2="117.0" stroke="#000" stroke-width="0.5"/><line x1="56.1" y1="120.8" x2="56.4" y2="116.8" stroke="#000" stroke-width="0.5"/><line x1="54.1" y1="120.6" x2="54.6" y2="116.7" stroke="#000" stroke-width="0.5"/><line x1="52.2" y1="120.3" x2="52.8" y2="116.4" stroke="#000" stroke-width="0.5"/><line x1="50.2" y1="120.0" x2="51.1" y2="116.1" stroke="#000" stroke-width="0.5"/><line x1="48.3" y1="119.5" x2="49.3" y2="115.6" stroke="#000" stroke-width="0.5"/><line x1="46.4" y1="119.0" x2="47.6" y2="115.2" stroke="#000" stroke-width="0.5"/><line x1="44.5" y1="118.4" x2="45.9" y2="114.6" stroke="#000" stroke-width="0.5"/><line x1="42.7" y1="117.7" x2="44.2" y2="114.0" stroke="#000" stroke-width="0.5"/><line x1="40.9" y1="116.9" x2="42.5" y2="113.3" stroke="#000" stroke-width="0.5"/><line x1="39.1" y1="116.1" x2="40.9" y2="112.5" stroke="#000" stroke-width="0.5"/><line x1="37.4" y1="115.2" x2="39.3" y2="111.7" stroke="#000" stroke-width="0.5"/><line x1="35.7" y1="114.2" x2="37.7" y2="110.8" stroke="#000" stroke-width="0.5"/><line x1="34.0" y1="113.1" x2="36.2" y2="109.8" stroke="#000" stroke-width="0.5"/><line x1="32.4" y1="112.0" x2="34.7" y2="108.8" stroke="#000" stroke-width="0.5"/><line x1="30.8" y1="110.8" x2="33.3" y2="107.7" stroke="#000" stroke-width="0.5"/><line x1="29.3" y1="109.6" x2="31.9" y2="106.6" stroke="#000" stroke-width="0.5"/><line x1="27.8" y1="108.3" x2="30.6" y2="105.3" stroke="#000" stroke-width="0.5"/><line x1="26.4" y1="106.9" x2="29.3" y2="104.1" stroke="#000" stroke-width="0.5"/><line x1="25.1" y1="105.4" x2="28.0" y2="102.8" stroke="#000" stroke-width="0.5"/><line x1="23.8" y1="104.0" x2="26.9" y2="101.4" stroke="#000" stroke-width="0.5"/><line x1="22.6" y1="102.4" x2="25.7" y2="100.0" stroke="#000" stroke-width="0.5"/><line x1="21.4" y1="100.8" x2="24.7" y2="98.5" stroke="#000" stroke-width="0.5"/><line x1="20.3" y1="99.2" x2="23.7" y2="97.0" stroke="#000" stroke-width="0.5"/><line x1="19.3" y1="97.5" x2="25.4" y2="94.0" stroke="#000" stroke-width="0.9"/><text x="31.4" y="92.9" font-size="7" text-anchor="middle">20</text><line x1="18.3" y1="95.8" x2="21.9" y2="93.9" stroke="#000" stroke-width="0.5"/><line x1="17.5" y1="94.0" x2="21.1" y2="92.3" stroke="#000" stroke-width="0.5"/><line x1="16.7" y1="92.2" x2="20.4" y2="90.7" stroke="#000" stroke-width="0.5"/><line x1="15.9" y1="90.4" x2="19.7" y2="89.0" stroke="#000" stroke-width="0.5"/><line x1="15.3" y1="88.5" x2="19.1" y2="87.3" stroke="#000" stroke-width="0.5"/><line x1="14.7" y1="86.6" x2="18.6" y2="85.6" stroke="#000" stroke-width="0.5"/><line x1="14.2" y1="84.7" x2="18.1" y2="83.8" stroke="#000" stroke-width="0.5"/><line x1="13.8" y1="82.8" x2="17.8" y2="82.1" stroke="#000" stroke-width="0.5"/><line x1="13.5" y1="80.9" x2="17.5" y2="80.3" stroke="#000" stroke-width="0.5"/><line x1="13.3" y1="78.9" x2="17.2" y2="78.5" stroke="#000" stroke-width="0.5"/><line x1="13.1" y1="77.0" x2="17.1" y2="76.7" stroke="#000" stroke-width="0.5"/><line x1="13.0" y1="75.0" x2="17.0" y2="74.9" stroke="#000" stroke-width="0.5"/><line x1="13.0" y1="73.0" x2="17.0" y2="73.1" stroke="#000" stroke-width="0.5"/><line x1="13.1" y1="71.0" x2="17.1" y2="71.3" stroke="#000" stroke-width="0.5"/><line x1="13.3" y1="69.1" x2="17.2" y2="69.5" stroke="#000" stroke-width="0.5"/><line x1="13.5" y1="67.1" x2="17.5" y2="67.7" stroke="#000" stroke-width="0.5"/><line x1="13.8" y1="65.2" x2="17.8" y2="65.9" stroke="#000" stroke-width="0.5"/><line x1="14.2" y1="63.3" x2="18.1" y2="64.2" stroke="#000" stroke-width="0.5"/><line x1="14.7" y1="61.4" x2="18.6" y2="62.4" stroke="#000" stroke-width="0.5"/><line x1="15.3" y1="59.5" x2="19.1" y2="60.7" stroke="#000" stroke-width="0.5"/><line x1="15.9" y1="57.6" x2="19.7" y2="59.0" stroke="#000" stroke-width="0.5"/><line x1="16.7" y1="55.8" x2="20.4" y2="57.3" stroke="#000" stroke-width="0.5"/><line x1="17.5" y1="54.0" x2="21.1" y2="55.7" stroke="#000" stroke-width="0.5"/><line x1="18.3" y1="52.2" x2="21.9" y2="54.1" stroke="#000" stroke-width="0.5"/><line x1="19.3" y1="50.5" x2="25.4" y2="54.0" stroke="#000" stroke-width="0.9"/><text x="31.4" y="59.9" font-size="7" text-anchor="middle">25</text><line x1="20.3" y1="48.8" x2="23.7" y2="51.0" stroke="#000" stroke-width="0.5"/><line x1="21.4" y1="47.2" x2="24.7" y2="49.5" stroke="#000" stroke-width="0.5"/><line x1="22.6" y1="45.6" x2="25.7" y2="48.0" stroke="#000" stroke-width="0.5"/><line x1="23.8" y1="44.0" x2="26.9" y2="46.6" stroke="#000" stroke-width="0.5"/><line x1="25.1" y1="42.6" x2="28.0" y2="45.2" stroke="#000" stroke-width="0.5"/><line x1="26.4" y1="41.1" x2="29.3" y2="43.9" stroke="#000" stroke-width="0.5"/><line x1="27.8" y1="39.7" x2="30.6" y2="42.7" stroke="#000" stroke-width="0.5"/><line x1="29.3" y1="38.4" x2="31.9" y2="41.4" stroke="#000" stroke-width="0.5"/><line x1="30.8" y1="37.2" x2="33.3" y2="40.3" stroke="#000" stroke-width="0.5"/><line x1="32.4" y1="36.0" x2="34.7" y2="39.2" stroke="#000" stroke-width="0.5"/><line x1="34.0" y1="34.9" x2="36.2" y2="38.2" stroke="#000" stroke-width="0.5"/><line x1="35.7" y1="33.8" x2="37.7" y2="37.2" stroke="#000" stroke-width="0.5"/><line x1="37.4" y1="32.8" x2="39.3" y2="36.3" stroke="#000" stroke-width="0.5"/><line x1="39.1" y1="31.9" x2="40.9" y2="35.5" stroke="#000" stroke-width="0.5"/><line x1="40.9" y1="31.1" x2="42.5" y2="34.7" stroke="#000" stroke-width="0.5"/><line x1="42.7" y1="30.3" x2="44.2" y2="34.0" stroke="#000" stroke-width="0.5"/><line x1="44.5" y1="29.6" x2="45.9" y2="33.4" stroke="#000" stroke-width="0.5"/><line x1="46.4" y1="29.0" x2="47.6" y2="32.8" stroke="#000" stroke-width="0.5"/><line x1="48.3" y1="28.5" x2="49.3" y2="32.4" stroke="#000" stroke-width="0.5"/><line x1="50.2" y1="28.0" x2="51.1" y2="31.9" stroke="#000" stroke-width="0.5"/><line x1="52.2" y1="27.7" x2="52.8" y2="31.6" stroke="#000" stroke-width="0.5"/><line x1="54.1" y1="27.4" x2="54.6" y2="31.3" stroke="#000" stroke-width="0.5"/><line x1="56.1" y1="27.2" x2="56.4" y2="31.2" stroke="#000" stroke-width="0.5"/><line x1="58.0" y1="27.0" x2="58.2" y2="31.0" stroke="#000" stroke-width="0.5"/><line x1="60.0" y1="27.0" x2="60.0" y2="34.0" stroke="#000" stroke-width="0.9"/><text x="60.0" y="43.4" font-size="7" text-anchor="middle">30</text><text x="60.0" y="95.0" font-size="7" text-anchor="middle">с</text><line x1="60.0" y1="74.0" x2="49.0" y2="110.4" stroke="#000" stroke-width="1.3"/><circle cx="60.0" cy="74.0" r="3" fill="#000"/><text x="60.0" y="142.0" font-size="8" text-anchor="middle">Секундомер</text></svg>